# xmcd
#
# Track frame offsets: 
#        150
#        18237
#        32468
#        44225
#        66732
#        85235
#        102535
#        119566
#        137123
#
# Disc length: 2167 seconds
#
# Revision: 0
# Processed by: cddbd v1.5.2PL0 Copyright (c) Steve Scherf et al.
# Submitted via: ExactAudioCopy v1.3
#
DISCID=85087509
DTITLE=James Montgomery - Duck Fever
DYEAR=2018
DGENRE=Blues
TTITLE0=Working On A Love Affair
TTITLE1=Who'll Be Next In Line
TTITLE2=For Your Love
TTITLE3=Crazy About My Baby
TTITLE4=Heaven Help Me
TTITLE5=New England Sunshine
TTITLE6=Not Your Clown
TTITLE7=Fire On The Bayou
TTITLE8=Living For The Weekend
EXTD=
EXTT0=
EXTT1=
EXTT2=
EXTT3=
EXTT4=
EXTT5=
EXTT6=
EXTT7=
EXTT8=
PLAYORDER=
